<svg width="120" height="80" viewBox="0 0 120 80" fill="none" xmlns="http://www.w3.org/2000/svg">
<rect width="120" height="80" fill="white"/>
<path d="M27.8109 9.45692H35.1295C35.3655 9.45692 35.5623 9.54874 35.7197 9.73236C35.9033 9.88974 35.9951 10.0471 35.9951 10.2045C35.9951 10.3619 35.982 10.4931 35.9558 10.598L28.5585 35.7015C28.3224 36.5672 27.7322 37 26.7878 37H17.8167C16.8723 37 16.2821 36.5672 16.046 35.7015L8.64877 10.598C8.62254 10.4931 8.60942 10.3619 8.60942 10.2045C8.60942 10.0471 8.68811 9.88974 8.8455 9.73236C9.02912 9.54874 9.23898 9.45692 9.47506 9.45692H16.7936C17.738 9.45692 18.3282 9.88974 18.5643 10.7554L22.3023 25.3926L26.0403 10.7554C26.2763 9.88974 26.8665 9.45692 27.8109 9.45692ZM48.2158 37H40.189C39.9004 37 39.6512 36.8951 39.4414 36.6852C39.2315 36.4754 39.1266 36.2262 39.1266 35.9376V10.5193C39.1266 10.2308 39.2315 9.98156 39.4414 9.7717C39.6512 9.56185 39.9004 9.45692 40.189 9.45692H48.2158C48.5044 9.45692 48.7536 9.56185 48.9634 9.7717C49.1733 9.98156 49.2782 10.2308 49.2782 10.5193V35.9376C49.2782 36.2262 49.1733 36.4754 48.9634 36.6852C48.7536 36.8951 48.5044 37 48.2158 37ZM71.6154 9.45692H78.934C79.1701 9.45692 79.3668 9.54874 79.5242 9.73236C79.7078 9.88974 79.7997 10.0471 79.7997 10.2045C79.7997 10.3619 79.7865 10.4931 79.7603 10.598L72.363 35.7015C72.1269 36.5672 71.5367 37 70.5924 37H61.6212C60.6769 37 60.0867 36.5672 59.8506 35.7015L52.4533 10.598C52.4271 10.4931 52.414 10.3619 52.414 10.2045C52.414 10.0471 52.4927 9.88974 52.6501 9.73236C52.8337 9.54874 53.0435 9.45692 53.2796 9.45692H60.5982C61.5425 9.45692 62.1327 9.88974 62.3688 10.7554L66.1068 25.3926L69.8448 10.7554C70.0809 9.88974 70.6711 9.45692 71.6154 9.45692ZM91.5482 9.45692H100.087C101.031 9.45692 101.621 9.88974 101.857 10.7554L110.632 35.8589C110.658 35.9376 110.671 36.0688 110.671 36.2524C110.671 36.4098 110.579 36.5803 110.396 36.7639C110.238 36.9213 110.041 37 109.805 37H102.526C101.739 37 101.228 36.6721 100.992 36.0163L100.047 33.4194H91.5875L90.6432 36.0163C90.4071 36.6721 89.8956 37 89.1087 37H81.8294C81.5933 37 81.3835 36.9213 81.1999 36.7639C81.0425 36.5803 80.9638 36.4098 80.9638 36.2524C80.9638 36.0688 80.9769 35.9376 81.0031 35.8589L89.7776 10.7554C90.0136 9.88974 90.6039 9.45692 91.5482 9.45692ZM93.5942 25.7467H98.0405L95.7977 18.4281L93.5942 25.7467Z" fill="black"/>
<path d="M32.8648 42.8148L19.7123 73.8H15.2704L2.05296 42.8148H6.27821L17.6322 69.6398L28.7045 42.8148H32.8648ZM44.4112 42.8148V73.8H40.4026V42.8148H44.4112ZM66.3799 70.5498C73.9637 70.5498 77.7556 66.1873 77.7556 57.4624C77.7556 49.8641 73.9637 46.065 66.3799 46.065H59.1212V70.5498H66.3799ZM55.1126 73.8V42.8148H66.3799C76.6361 42.8148 81.7642 47.6973 81.7642 57.4624C81.7642 68.3541 76.6361 73.8 66.3799 73.8H55.1126ZM91.2955 73.8H87.1352L100.288 42.8148H104.73L117.947 73.8H113.505L109.497 64.0494H99.2476L100.353 60.7992H108.153L102.368 46.7584L91.2955 73.8Z" fill="black"/>
</svg>
